<svg width="16" height="16" viewBox="0 0 16 16" fill="none" xmlns="http://www.w3.org/2000/svg">
<path d="M2 9.33333H10C10.3536 9.33333 10.6928 9.47381 10.9428 9.72386C11.1929 9.97391 11.3333 10.313 11.3333 10.6667V12.6667C11.3333 13.0203 11.1929 13.3594 10.9428 13.6095C10.6928 13.8595 10.3536 14 10 14H3.33333C2.97971 14 2.64057 13.8595 2.39052 13.6095C2.14048 13.3594 2 13.0203 2 12.6667V6C2 5.64638 2.14048 5.30724 2.39052 5.05719C2.64057 4.80714 2.97971 4.66667 3.33333 4.66667H5.33333C5.68696 4.66667 6.02609 4.80714 6.27614 5.05719C6.52619 5.30724 6.66667 5.64638 6.66667 6V14M9.33333 2.66667C9.33333 2.48986 9.40357 2.32029 9.5286 2.19526C9.65362 2.07024 9.82319 2 10 2H13.3333C13.5101 2 13.6797 2.07024 13.8047 2.19526C13.9298 2.32029 14 2.48986 14 2.66667V6C14 6.17681 13.9298 6.34638 13.8047 6.4714C13.6797 6.59643 13.5101 6.66667 13.3333 6.66667H10C9.82319 6.66667 9.65362 6.59643 9.5286 6.4714C9.40357 6.34638 9.33333 6.17681 9.33333 6V2.66667Z" stroke="white" stroke-width="1.33333" stroke-linecap="round" stroke-linejoin="round"/>
</svg>
