<svg width="16" height="16" viewBox="0 0 16 16" fill="none" xmlns="http://www.w3.org/2000/svg">
<path d="M12.6667 12.6667H3.33333V5.33333H12.6667M10.6667 0.666668V2H5.33333V0.666668H4V2H3.33333C2.59333 2 2 2.59333 2 3.33333V12.6667C2 13.0203 2.14048 13.3594 2.39052 13.6095C2.64057 13.8595 2.97971 14 3.33333 14H12.6667C13.0203 14 13.3594 13.8595 13.6095 13.6095C13.8595 13.3594 14 13.0203 14 12.6667V3.33333C14 2.97971 13.8595 2.64057 13.6095 2.39053C13.3594 2.14048 13.0203 2 12.6667 2H12V0.666668M11.3333 8H8V11.3333H11.3333V8Z" fill="#010023"/>
</svg>
