<svg width="16" height="16" viewBox="0 0 16 16" fill="none" xmlns="http://www.w3.org/2000/svg">
<path fill-rule="evenodd" clip-rule="evenodd" d="M2.13333 1.06667C1.85043 1.06667 1.57912 1.17905 1.37909 1.37909C1.17905 1.57912 1.06667 1.85043 1.06667 2.13333V13.8667C1.06667 14.1496 1.17905 14.4209 1.37909 14.6209C1.57912 14.821 1.85043 14.9333 2.13333 14.9333H13.8667C14.1496 14.9333 14.4209 14.821 14.6209 14.6209C14.821 14.4209 14.9333 14.1496 14.9333 13.8667V2.13333C14.9333 1.85043 14.821 1.57912 14.6209 1.37909C14.4209 1.17905 14.1496 1.06667 13.8667 1.06667H2.13333ZM2.13333 2.13333H13.8667V13.8667H2.13333V2.13333ZM4.8 4.26667C4.65855 4.26667 4.5229 4.32286 4.42288 4.42288C4.32286 4.5229 4.26667 4.65855 4.26667 4.8V11.2C4.26667 11.3414 4.32286 11.4771 4.42288 11.5771C4.5229 11.6771 4.65855 11.7333 4.8 11.7333H11.2C11.3414 11.7333 11.4771 11.6771 11.5771 11.5771C11.6771 11.4771 11.7333 11.3414 11.7333 11.2V4.8C11.7333 4.65855 11.6771 4.5229 11.5771 4.42288C11.4771 4.32286 11.3414 4.26667 11.2 4.26667H4.8ZM5.33333 10.6667V5.33333H10.6667V10.6667H5.33333Z" fill="#5A62E6"/>
</svg>
