<svg width="16" height="16" viewBox="0 0 16 16" fill="none" xmlns="http://www.w3.org/2000/svg">
<path fill-rule="evenodd" clip-rule="evenodd" d="M13.545 2.1C13.6303 2.14929 13.7051 2.21491 13.765 2.2931C13.825 2.3713 13.8689 2.46054 13.8944 2.55573C13.9198 2.65092 13.9263 2.75018 13.9133 2.84786C13.9004 2.94554 13.8683 3.03971 13.819 3.125L10.347 9.132C10.8011 9.7032 11.0314 10.4203 10.9948 11.1491C10.9583 11.8778 10.6573 12.5683 10.1484 13.0912C9.63948 13.6141 8.95741 13.9336 8.2299 13.9899C7.50239 14.0461 6.77932 13.8353 6.19603 13.3969C5.61275 12.9584 5.20926 12.3225 5.06108 11.608C4.9129 10.8935 5.03021 10.1495 5.39104 9.51529C5.75186 8.88107 6.33147 8.40009 7.02135 8.1624C7.71124 7.92472 8.4641 7.94662 9.139 8.224L10.898 5.182C10.2244 4.84625 9.4976 4.63003 8.75 4.543V5C8.75 5.19891 8.67099 5.38968 8.53033 5.53033C8.38968 5.67098 8.19892 5.75 8 5.75C7.80109 5.75 7.61033 5.67098 7.46967 5.53033C7.32902 5.38968 7.25 5.19891 7.25 5V4.543C6.61969 4.61618 6.00348 4.78126 5.421 5.033L5.65 5.429C5.69925 5.51436 5.7312 5.60858 5.74403 5.70629C5.75686 5.804 5.75032 5.90327 5.72479 5.99845C5.69925 6.09363 5.65522 6.18285 5.5952 6.26101C5.53519 6.33918 5.46036 6.40475 5.375 6.454C5.28964 6.50324 5.19542 6.5352 5.09771 6.54803C5.00001 6.56086 4.90073 6.55432 4.80555 6.52878C4.71037 6.50325 4.62115 6.45921 4.54299 6.3992C4.46483 6.33918 4.39925 6.26436 4.35 6.179L4.122 5.783C3.61263 6.16188 3.16151 6.61334 2.783 7.123L3.179 7.35C3.35139 7.44946 3.47722 7.61332 3.52879 7.80554C3.58036 7.99777 3.55346 8.20261 3.454 8.375C3.40476 8.46036 3.33918 8.53518 3.26102 8.5952C3.18286 8.65521 3.09364 8.69925 2.99846 8.72478C2.80623 8.77636 2.60139 8.74945 2.429 8.65L2.033 8.421C1.77123 9.02703 1.6033 9.66939 1.535 10.326C1.51445 10.5239 1.41614 10.7054 1.2617 10.8308C1.10727 10.9562 0.909355 11.0151 0.711503 10.9945C0.513652 10.9739 0.332069 10.8756 0.206701 10.7212C0.081333 10.5668 0.0224492 10.3689 0.0430035 10.171C0.17756 8.87766 0.625349 7.63662 1.3476 6.55533C2.06984 5.47404 3.04478 4.5851 4.18797 3.96549C5.33117 3.34587 6.60818 3.01426 7.90841 2.99936C9.20864 2.98447 10.4929 3.28674 11.65 3.88L12.52 2.374C12.5693 2.28868 12.6349 2.21391 12.7131 2.15397C12.7913 2.09402 12.8805 2.05007 12.9757 2.02462C13.0709 1.99918 13.1702 1.99274 13.2679 2.00567C13.3655 2.0186 13.4597 2.05066 13.545 2.1ZM13.438 6.147C13.5993 6.03059 13.8002 5.983 13.9965 6.01469C14.1928 6.04638 14.3686 6.15476 14.485 6.316C15.5256 7.75668 16.0569 9.50287 15.995 11.279C15.9927 11.3782 15.9707 11.4759 15.9304 11.5666C15.89 11.6572 15.8321 11.7389 15.76 11.807C15.6878 11.8751 15.6029 11.9282 15.51 11.9633C15.4172 11.9983 15.3184 12.0146 15.2192 12.0111C15.12 12.0077 15.0226 11.9846 14.9324 11.9432C14.8422 11.9019 14.7612 11.843 14.6939 11.7701C14.6266 11.6971 14.5745 11.6116 14.5405 11.5184C14.5066 11.4251 14.4914 11.3261 14.496 11.227C14.5464 9.78369 14.1147 8.36469 13.269 7.194C13.2114 7.11409 13.1701 7.02362 13.1475 6.92776C13.1249 6.83189 13.1214 6.73251 13.1371 6.63529C13.1529 6.53806 13.1877 6.4449 13.2395 6.36112C13.2913 6.27734 13.3591 6.20458 13.439 6.147H13.438ZM9.5 11C9.5 11.3978 9.34197 11.7794 9.06066 12.0607C8.77936 12.342 8.39783 12.5 8 12.5C7.60218 12.5 7.22065 12.342 6.93934 12.0607C6.65804 11.7794 6.5 11.3978 6.5 11C6.5 10.6022 6.65804 10.2206 6.93934 9.93934C7.22065 9.65803 7.60218 9.5 8 9.5C8.39783 9.5 8.77936 9.65803 9.06066 9.93934C9.34197 10.2206 9.5 10.6022 9.5 11Z" fill="#010023"/>
</svg>
