<svg width="16" height="16" viewBox="0 0 16 16" fill="none" xmlns="http://www.w3.org/2000/svg">
<path d="M7 3.5C6.86739 3.5 6.74021 3.55268 6.64645 3.64645C6.55268 3.74021 6.5 3.86739 6.5 4V4.5H7V4H12.5V4.5H13V4C13 3.86739 12.9473 3.74021 12.8536 3.64645C12.7598 3.55268 12.6326 3.5 12.5 3.5H7Z" fill="#212121"/>
<path d="M7 3.5H7.5V4H7V3.5ZM8 3.5H8.5V4H8V3.5ZM9.5 3.5H9V4H9.5V3.5ZM10 3.5H10.5V4H10V3.5ZM12.5 3.5H12V4H12.5V3.5ZM11 3.5H11.5V4H11V3.5Z" fill="#D3D3D3"/>
<path d="M14.745 11.5H13.5V7.5H14.745C14.885 7.5 15 7.615 15 7.755V11.245C14.995 11.39 14.885 11.5 14.745 11.5Z" fill="#636363"/>
<path d="M13.525 4.5H5.795C5.615 4.5 5.45 4.605 5.37 4.765L5.2525 5L4.75 6.75L3.505 8.5H2.505C1.755 8.5 1.5 8.75 1.5 9.5V13H14V8.5L13.5 6.75L14 5V4.975C14 4.84902 13.95 4.7282 13.8609 4.63912C13.7718 4.55004 13.651 4.5 13.525 4.5Z" fill="#5092FF"/>
<path d="M14.065 12H1.435C1.31963 12 1.20899 12.0458 1.12741 12.1274C1.04583 12.209 1 12.3196 1 12.435V13.065C1 13.305 1.195 13.5 1.435 13.5H14.065C14.305 13.5 14.5 13.305 14.5 13.065V12.435C14.4991 12.3199 14.453 12.2098 14.3716 12.1284C14.2902 12.047 14.1801 12.0009 14.065 12Z" fill="#D3D3D3"/>
<path d="M2.5 10C2.5 9.725 2.275 9.5 2 9.5H1.5V11H2C2.275 11 2.5 10.775 2.5 10.5V10Z" fill="#FFF478"/>
<path d="M5.995 13.25C5.995 13.7141 5.81063 14.1592 5.48244 14.4874C5.15425 14.8156 4.70913 15 4.245 15C3.78087 15 3.33575 14.8156 3.00757 14.4874C2.67938 14.1592 2.495 13.7141 2.495 13.25C2.495 12.7859 2.67938 12.3408 3.00757 12.0126C3.33575 11.6844 3.78087 11.5 4.245 11.5C4.70913 11.5 5.15425 11.6844 5.48244 12.0126C5.81063 12.3408 5.995 12.7859 5.995 13.25ZM12.995 13.25C12.995 13.7141 12.8106 14.1592 12.4824 14.4874C12.1543 14.8156 11.7091 15 11.245 15C10.7809 15 10.3358 14.8156 10.0076 14.4874C9.67938 14.1592 9.495 13.7141 9.495 13.25C9.495 12.7859 9.67938 12.3408 10.0076 12.0126C10.3358 11.6844 10.7809 11.5 11.245 11.5C11.7091 11.5 12.1543 11.6844 12.4824 12.0126C12.8106 12.3408 12.995 12.7859 12.995 13.25Z" fill="#321B41"/>
<path d="M5 13.25C5 13.4489 4.92098 13.6397 4.78033 13.7803C4.63968 13.921 4.44891 14 4.25 14C4.05109 14 3.86032 13.921 3.71967 13.7803C3.57902 13.6397 3.5 13.4489 3.5 13.25C3.5 13.0511 3.57902 12.8603 3.71967 12.7197C3.86032 12.579 4.05109 12.5 4.25 12.5C4.44891 12.5 4.63968 12.579 4.78033 12.7197C4.92098 12.8603 5 13.0511 5 13.25ZM12 13.25C12 13.4489 11.921 13.6397 11.7803 13.7803C11.6397 13.921 11.4489 14 11.25 14C11.0511 14 10.8603 13.921 10.7197 13.7803C10.579 13.6397 10.5 13.4489 10.5 13.25C10.5 13.0511 10.579 12.8603 10.7197 12.7197C10.8603 12.579 11.0511 12.5 11.25 12.5C11.4489 12.5 11.6397 12.579 11.7803 12.7197C11.921 12.8603 12 13.0511 12 13.25Z" fill="#F4F4F4"/>
<path d="M11.017 8.5H8.983C8.85534 8.50027 8.73279 8.44988 8.64223 8.35989C8.55168 8.2699 8.50053 8.14766 8.5 8.02V5.48C8.5 5.215 8.7165 5 8.983 5H11.017C11.2835 5 11.5 5.215 11.5 5.48V8.02C11.5 8.285 11.2835 8.5 11.017 8.5ZM7.5 8.02V5.48C7.5 5.215 7.2825 5 7.015 5H5.25L3.5 8.5H7.015C7.2825 8.5 7.5 8.285 7.5 8.02ZM12.98 5H14V8.5H12.98C12.917 8.5 12.8545 8.48758 12.7963 8.46346C12.7381 8.43934 12.6852 8.40398 12.6406 8.35941C12.596 8.31484 12.5607 8.26192 12.5365 8.20369C12.5124 8.14545 12.5 8.08303 12.5 8.02V5.48C12.5 5.215 12.715 5 12.98 5Z" fill="#26C9FC"/>
<path d="M14 9.5H13.75C13.6486 9.50002 13.5482 9.52062 13.455 9.56054C13.3617 9.60046 13.2776 9.65888 13.2076 9.73226C13.1375 9.80564 13.0831 9.89246 13.0476 9.98746C13.0121 10.0825 12.9963 10.1837 13.001 10.285C13.021 10.69 13.3705 11 13.775 11H14V9.5Z" fill="#F8312F"/>
<path d="M5.565 9H5.76C5.895 9 6 8.89 6 8.76V7.74C6 7.70848 5.99379 7.67727 5.98173 7.64816C5.96967 7.61904 5.95199 7.59258 5.92971 7.57029C5.90742 7.54801 5.88096 7.53033 5.85184 7.51827C5.82273 7.50621 5.79152 7.5 5.76 7.5H5.565C5.255 7.5 5 7.755 5 8.065V8.435C5 8.75 5.255 9 5.565 9ZM7.75 9.5H7.25C7.11 9.5 7 9.39 7 9.25C7 9.11 7.11 9 7.25 9H7.75C7.89 9 8 9.11 8 9.25C8 9.39 7.89 9.5 7.75 9.5ZM9.75 9.5H10.25C10.39 9.5 10.5 9.39 10.5 9.25C10.5 9.11 10.39 9 10.25 9H9.75C9.61 9 9.5 9.11 9.5 9.25C9.5 9.39 9.61 9.5 9.75 9.5Z" fill="#D3D3D3"/>
</svg>
